<svg data-logo="logo" xmlns="http://www.w3.org/2000/svg" viewBox="0 0 146 40" role="img" aria-label="XploraLead logo">
  <!-- Logogram (unchanged) -->
  <g id="logogram" transform="translate(0, 0) rotate(0)">
    <path d="M0 24.7021C0 22.6932 0.395671 20.7039 1.16447 18.848C1.93328 16.9919 3.06009 15.3055 4.48064 13.885C5.90118 12.4644 7.58755 11.3376 9.44355 10.5688C11.2996 9.80008 13.2889 9.40435 15.2979 9.40435V24.7021H0Z" fill="#442781"/>
    <path d="M0 24.7021C0 26.7111 0.395671 28.7004 1.16447 30.5564C1.93328 32.4124 3.06009 34.0988 4.48064 35.5194C5.90118 36.9399 7.58755 38.0668 9.44355 38.8356C11.2996 39.6044 13.2889 40 15.2979 40V24.7021H0Z" fill="#61459C"/>
    <path d="M30.5955 24.7021C30.5955 26.7111 30.2001 28.7004 29.4314 30.5564C28.6626 32.4124 27.5358 34.0988 26.115 35.5194C24.6945 36.9399 23.0081 38.0668 21.152 38.8356C19.2961 39.6044 17.3068 40 15.2979 40V24.7021H30.5955Z" fill="#A992DB"/>
    <path d="M40.0277 11.4862C40.0277 17.8299 34.885 22.9724 28.5414 22.9724H17.0553V11.4862C17.0553 5.14258 22.1979 0 28.5414 0C34.885 0 40.0277 5.14258 40.0277 11.4862Z" fill="#FF7917"/>
  </g>

  <!-- Logotype (replaced with live text) -->
  <g id="logotype" transform="translate(47, 0.5)">
    <!-- Choose a font present on your site; fall back to a clean sans-serif -->
    <text x="0" y="28"
          fill="#111111"
          font-family="Inter, system-ui, -apple-system, Segoe UI, Roboto, Helvetica, Arial, sans-serif"
          font-size="16"
          font-weight="600"
          letter-spacing="0.2"
          dominant-baseline="alphabetic">
      XploraLead
    </text>
  </g>
</svg>
