
        <svg data-logo="logo" xmlns="http://www.w3.org/2000/svg" viewBox="0 0 146 40">
          <g id="logogram" transform="translate(0, 0) rotate(0)"><path d="M0 24.7021C0 22.6932 0.395671 20.7039 1.16447 18.848C1.93328 16.9919 3.06009 15.3055 4.48064 13.885C5.90118 12.4644 7.58755 11.3376 9.44355 10.5688C11.2996 9.80008 13.2889 9.40435 15.2979 9.40435V24.7021H0Z" fill="#442781"/><path d="M0 24.7021C0 26.7111 0.395671 28.7004 1.16447 30.5564C1.93328 32.4124 3.06009 34.0988 4.48064 35.5194C5.90118 36.9399 7.58755 38.0668 9.44355 38.8356C11.2996 39.6044 13.2889 40 15.2979 40V24.7021H0Z" fill="#61459C"/><path d="M30.5955 24.7021C30.5955 26.7111 30.2001 28.7004 29.4314 30.5564C28.6626 32.4124 27.5358 34.0988 26.115 35.5194C24.6945 36.9399 23.0081 38.0668 21.152 38.8356C19.2961 39.6044 17.3068 40 15.2979 40V24.7021H30.5955Z" fill="#A992DB"/><path d="M40.0277 11.4862C40.0277 17.8299 34.885 22.9724 28.5414 22.9724H17.0553V11.4862C17.0553 5.14258 22.1979 0 28.5414 0C34.885 0 40.0277 5.14258 40.0277 11.4862Z" fill="#FF7917"/></g>
          <g id="logotype" transform="translate(47, 0.5)"><path fill="#111111" d="M9.52 35L6.41 35L10.64 28.25L10.63 30.54L6.63 24.08L9.79 24.08L10.78 25.81Q11.24 26.65 11.62 27.48Q12.00 28.30 12.39 29.08L12.39 29.08L11.27 29.08Q11.67 28.31 12.04 27.48Q12.42 26.65 12.90 25.81L12.90 25.81L13.93 24.08L17.04 24.08L12.95 30.57L12.95 28.31L17.19 35L14.05 35L12.84 32.94Q12.36 32.11 11.97 31.28Q11.59 30.45 11.19 29.69L11.19 29.69L12.31 29.69Q11.93 30.45 11.56 31.28Q11.20 32.11 10.73 32.94L10.73 32.94L9.52 35ZM23.76 35L17.62 35L17.62 20.45L23.39 20.45Q24.99 20.45 26.06 20.93Q27.13 21.42 27.66 22.26Q28.20 23.10 28.20 24.19L28.20 24.19Q28.20 25.05 27.85 25.69Q27.51 26.33 26.92 26.73Q26.33 27.14 25.58 27.31L25.58 27.31L25.58 27.46Q26.40 27.49 27.13 27.92Q27.85 28.36 28.31 29.14Q28.76 29.91 28.76 31.00L28.76 31.00Q28.76 32.14 28.20 33.05Q27.63 33.96 26.52 34.48Q25.41 35 23.76 35L23.76 35ZM20.60 28.60L20.60 32.55L23.18 32.55Q24.49 32.55 25.09 32.04Q25.70 31.53 25.70 30.71L25.70 30.71Q25.70 30.09 25.40 29.61Q25.10 29.14 24.55 28.87Q24.01 28.60 23.25 28.60L23.25 28.60L20.60 28.60ZM20.60 22.88L20.60 26.56L22.95 26.56Q23.59 26.56 24.09 26.33Q24.60 26.10 24.89 25.68Q25.18 25.25 25.18 24.67L25.18 24.67Q25.18 23.88 24.62 23.38Q24.06 22.88 23.01 22.88L23.01 22.88L20.60 22.88ZM29.41 38.87L29.41 38.87L30.08 36.66L30.44 36.75Q31.03 36.90 31.49 36.84Q31.94 36.77 32.22 36.46Q32.50 36.16 32.56 35.62L32.56 35.62L32.64 35.03L28.54 24.08L31.65 24.08L33.49 29.75Q33.82 30.82 34.03 31.89Q34.24 32.97 34.51 34.14L34.51 34.14L33.83 34.14Q34.09 32.97 34.36 31.89Q34.62 30.81 34.97 29.75L34.97 29.75L36.89 24.08L39.96 24.08L35.32 36.29Q34.99 37.17 34.47 37.81Q33.96 38.46 33.19 38.81Q32.41 39.16 31.32 39.16L31.32 39.16Q30.73 39.16 30.23 39.08Q29.72 38.99 29.41 38.87ZM39.17 24.08L45.64 24.08L45.64 26.32L39.17 26.32L39.17 24.08ZM40.67 32.06L40.67 21.48L43.60 21.48L43.60 31.81Q43.60 32.32 43.83 32.57Q44.06 32.82 44.60 32.82L44.60 32.82Q44.77 32.82 45.07 32.78Q45.37 32.73 45.53 32.70L45.53 32.70L45.95 34.89Q45.46 35.04 44.98 35.10Q44.49 35.16 44.05 35.16L44.05 35.16Q42.41 35.16 41.54 34.36Q40.67 33.55 40.67 32.06L40.67 32.06ZM51.18 35.21L51.18 35.21Q49.51 35.21 48.30 34.53Q47.09 33.85 46.44 32.59Q45.79 31.33 45.79 29.60L45.79 29.60Q45.79 27.91 46.43 26.64Q47.08 25.37 48.26 24.66Q49.44 23.95 51.03 23.95L51.03 23.95Q52.11 23.95 53.04 24.29Q53.96 24.63 54.67 25.32Q55.37 26.01 55.77 27.04Q56.16 28.08 56.16 29.48L56.16 29.48L56.16 30.30L46.99 30.30L46.99 28.47L54.73 28.47L53.36 28.96Q53.36 28.11 53.10 27.48Q52.84 26.85 52.33 26.50Q51.82 26.15 51.05 26.15L51.05 26.15Q50.30 26.15 49.77 26.50Q49.24 26.86 48.96 27.46Q48.69 28.06 48.69 28.83L48.69 28.83L48.69 30.13Q48.69 31.07 49.01 31.72Q49.33 32.36 49.90 32.69Q50.47 33.01 51.23 33.01L51.23 33.01Q51.75 33.01 52.17 32.86Q52.59 32.71 52.88 32.43Q53.18 32.14 53.34 31.72L53.34 31.72L56.00 32.22Q55.73 33.12 55.08 33.79Q54.42 34.47 53.44 34.84Q52.46 35.21 51.18 35.21ZM63.29 35.20L63.29 35.20Q61.36 35.20 59.83 34.32Q58.30 33.44 57.42 31.77Q56.53 30.10 56.53 27.73L56.53 27.73Q56.53 25.36 57.42 23.69Q58.31 22.01 59.84 21.13Q61.38 20.25 63.29 20.25L63.29 20.25Q64.53 20.25 65.60 20.60Q66.67 20.95 67.50 21.61Q68.33 22.28 68.86 23.24Q69.38 24.20 69.55 25.42L69.55 25.42L66.53 25.42Q66.43 24.82 66.16 24.36Q65.88 23.90 65.46 23.57Q65.05 23.24 64.51 23.07Q63.97 22.90 63.35 22.90L63.35 22.90Q62.21 22.90 61.36 23.47Q60.50 24.03 60.03 25.11Q59.56 26.19 59.56 27.73L59.56 27.73Q59.56 29.31 60.04 30.38Q60.52 31.46 61.37 32.00Q62.21 32.55 63.34 32.55L63.34 32.55Q63.96 32.55 64.50 32.38Q65.03 32.21 65.45 31.88Q65.88 31.55 66.16 31.08Q66.43 30.62 66.54 30.03L66.54 30.03L69.56 30.03Q69.44 31.04 68.96 31.96Q68.47 32.89 67.67 33.62Q66.87 34.36 65.77 34.78Q64.67 35.20 63.29 35.20ZM73.29 28.68L73.29 28.68L73.29 35L70.36 35L70.36 20.45L73.23 20.45L73.23 26.81L72.99 26.81Q73.42 25.44 74.30 24.69Q75.17 23.95 76.56 23.95L76.56 23.95Q77.69 23.95 78.54 24.44Q79.38 24.93 79.85 25.85Q80.31 26.78 80.31 28.06L80.31 28.06L80.31 35L77.38 35L77.38 28.56Q77.38 27.55 76.86 26.97Q76.33 26.40 75.41 26.40L75.41 26.40Q74.79 26.40 74.31 26.67Q73.83 26.93 73.56 27.44Q73.29 27.95 73.29 28.68ZM84.56 35.21L84.56 35.21Q83.52 35.21 82.70 34.85Q81.87 34.48 81.40 33.75Q80.92 33.03 80.92 31.94L80.92 31.94Q80.92 31.04 81.26 30.42Q81.60 29.80 82.18 29.43Q82.76 29.06 83.50 28.87Q84.23 28.67 85.04 28.59L85.04 28.59Q85.99 28.50 86.57 28.41Q87.15 28.33 87.42 28.15Q87.69 27.97 87.69 27.62L87.69 27.62L87.69 27.57Q87.69 27.10 87.50 26.78Q87.30 26.46 86.92 26.28Q86.54 26.11 85.98 26.11L85.98 26.11Q85.42 26.11 85.00 26.28Q84.58 26.46 84.31 26.74Q84.05 27.02 83.92 27.37L83.92 27.37L81.24 26.92Q81.52 25.98 82.17 25.31Q82.83 24.65 83.80 24.30Q84.77 23.95 85.98 23.95L85.98 23.95Q86.87 23.95 87.70 24.16Q88.53 24.37 89.19 24.80Q89.85 25.24 90.23 25.95Q90.62 26.65 90.62 27.65L90.62 27.65L90.62 35L87.85 35L87.85 33.49L87.75 33.49Q87.49 33.99 87.05 34.38Q86.61 34.77 85.99 34.99Q85.37 35.21 84.56 35.21ZM85.39 33.15L85.39 33.15Q86.08 33.15 86.60 32.88Q87.12 32.61 87.42 32.14Q87.71 31.67 87.71 31.09L87.71 31.09L87.71 29.91Q87.58 30.01 87.32 30.09Q87.06 30.17 86.73 30.22Q86.41 30.28 86.10 30.33Q85.79 30.38 85.54 30.41L85.54 30.41Q85.01 30.49 84.60 30.66Q84.19 30.84 83.96 31.13Q83.74 31.42 83.74 31.87L83.74 31.87Q83.74 32.29 83.95 32.57Q84.17 32.86 84.53 33.01Q84.90 33.15 85.39 33.15ZM90.77 24.08L97.24 24.08L97.24 26.32L90.77 26.32L90.77 24.08ZM92.27 32.06L92.27 21.48L95.20 21.48L95.20 31.81Q95.20 32.32 95.43 32.57Q95.66 32.82 96.20 32.82L96.20 32.82Q96.36 32.82 96.66 32.78Q96.97 32.73 97.12 32.70L97.12 32.70L97.54 34.89Q97.06 35.04 96.57 35.10Q96.09 35.16 95.65 35.16L95.65 35.16Q94.01 35.16 93.14 34.36Q92.27 33.55 92.27 32.06L92.27 32.06Z"/></g>
          
        </svg>
      