
        <svg data-logo="logo" xmlns="http://www.w3.org/2000/svg" viewBox="0 0 214 42">
          <g id="logogram" transform="translate(0, 1) rotate(0)"><path d="M0 24.7021C0 22.6932 0.395671 20.7039 1.16447 18.848C1.93328 16.9919 3.06009 15.3055 4.48064 13.885C5.90118 12.4644 7.58755 11.3376 9.44355 10.5688C11.2996 9.80008 13.2889 9.40435 15.2979 9.40435V24.7021H0Z" fill="#442781"/><path d="M0 24.7021C0 26.7111 0.395671 28.7004 1.16447 30.5564C1.93328 32.4124 3.06009 34.0988 4.48064 35.5194C5.90118 36.9399 7.58755 38.0668 9.44355 38.8356C11.2996 39.6044 13.2889 40 15.2979 40V24.7021H0Z" fill="#61459C"/><path d="M30.5955 24.7021C30.5955 26.7111 30.2001 28.7004 29.4314 30.5564C28.6626 32.4124 27.5358 34.0988 26.115 35.5194C24.6945 36.9399 23.0081 38.0668 21.152 38.8356C19.2961 39.6044 17.3068 40 15.2979 40V24.7021H30.5955Z" fill="#A992DB"/><path d="M40.0277 11.4862C40.0277 17.8299 34.885 22.9724 28.5414 22.9724H17.0553V11.4862C17.0553 5.14258 22.1979 0 28.5414 0C34.885 0 40.0277 5.14258 40.0277 11.4862Z" fill="#FF7917"/></g>
          <g id="logotype" transform="translate(47, 0)"><path fill="#111111" d="M12.15 35L6.72 35L14.12 23.19L14.10 27.19L7.09 15.89L12.63 15.89L14.36 18.92Q15.18 20.39 15.84 21.83Q16.49 23.28 17.18 24.64L17.18 24.64L15.23 24.64Q15.93 23.29 16.58 21.84Q17.23 20.39 18.08 18.92L18.08 18.92L19.88 15.89L25.31 15.89L18.17 27.24L18.17 23.29L25.58 35L20.08 35L17.96 31.39Q17.13 29.94 16.45 28.49Q15.78 27.04 15.07 25.70L15.07 25.70L17.04 25.70Q16.37 27.04 15.73 28.49Q15.09 29.94 14.27 31.39L14.27 31.39L12.15 35ZM37.08 35L26.33 35L26.33 9.54L36.43 9.54Q39.24 9.54 41.11 10.38Q42.98 11.23 43.91 12.70Q44.84 14.17 44.84 16.08L44.84 16.08Q44.84 17.59 44.25 18.70Q43.65 19.82 42.61 20.53Q41.58 21.24 40.26 21.55L40.26 21.55L40.26 21.81Q41.70 21.86 42.97 22.62Q44.25 23.38 45.04 24.74Q45.83 26.10 45.83 27.99L45.83 27.99Q45.83 29.99 44.84 31.58Q43.85 33.17 41.91 34.09Q39.97 35 37.08 35L37.08 35ZM31.55 23.81L31.55 30.71L36.06 30.71Q38.35 30.71 39.41 29.82Q40.47 28.93 40.47 27.50L40.47 27.50Q40.47 26.40 39.95 25.57Q39.43 24.75 38.47 24.28Q37.51 23.81 36.20 23.81L36.20 23.81L31.55 23.81ZM31.55 13.79L31.55 20.23L35.67 20.23Q36.78 20.23 37.67 19.83Q38.55 19.43 39.06 18.69Q39.56 17.94 39.56 16.92L39.56 16.92Q39.56 15.53 38.58 14.66Q37.60 13.79 35.77 13.79L35.77 13.79L31.55 13.79ZM46.96 41.77L46.96 41.77L48.14 37.91L48.77 38.06Q49.80 38.33 50.60 38.21Q51.40 38.09 51.89 37.56Q52.38 37.03 52.48 36.08L52.48 36.08L52.62 35.05L45.44 15.89L50.89 15.89L54.10 25.81Q54.68 27.69 55.05 29.57Q55.42 31.45 55.90 33.50L55.90 33.50L54.70 33.50Q55.16 31.45 55.62 29.56Q56.09 27.67 56.70 25.81L56.70 25.81L60.05 15.89L65.43 15.89L57.32 37.26Q56.74 38.79 55.83 39.92Q54.92 41.05 53.57 41.67Q52.22 42.28 50.31 42.28L50.31 42.28Q49.28 42.28 48.40 42.14Q47.51 41.99 46.96 41.77ZM64.05 15.89L75.38 15.89L75.38 19.81L64.05 19.81L64.05 15.89ZM66.68 29.86L66.68 11.35L71.81 11.35L71.81 29.41Q71.81 30.32 72.21 30.75Q72.61 31.19 73.55 31.19L73.55 31.19Q73.84 31.19 74.37 31.11Q74.90 31.04 75.17 30.97L75.17 30.97L75.91 34.81Q75.05 35.07 74.21 35.17Q73.36 35.27 72.59 35.27L72.59 35.27Q69.72 35.27 68.20 33.87Q66.68 32.47 66.68 29.86L66.68 29.86ZM85.07 35.38L85.07 35.38Q82.14 35.38 80.03 34.18Q77.91 32.98 76.77 30.78Q75.63 28.57 75.63 25.55L75.63 25.55Q75.63 22.59 76.76 20.37Q77.89 18.15 79.96 16.90Q82.02 15.65 84.81 15.65L84.81 15.65Q86.69 15.65 88.31 16.25Q89.94 16.85 91.17 18.06Q92.40 19.26 93.09 21.07Q93.78 22.88 93.78 25.34L93.78 25.34L93.78 26.78L77.73 26.78L77.73 23.57L91.27 23.57L88.88 24.42Q88.88 22.93 88.42 21.83Q87.97 20.73 87.07 20.12Q86.18 19.52 84.84 19.52L84.84 19.52Q83.53 19.52 82.60 20.13Q81.67 20.75 81.19 21.80Q80.71 22.85 80.71 24.20L80.71 24.20L80.71 26.47Q80.71 28.13 81.26 29.26Q81.82 30.39 82.82 30.95Q83.82 31.51 85.15 31.51L85.15 31.51Q86.06 31.51 86.79 31.26Q87.53 31.00 88.05 30.50Q88.57 29.99 88.84 29.26L88.84 29.26L93.49 30.13Q93.03 31.70 91.89 32.89Q90.74 34.08 89.02 34.73Q87.31 35.38 85.07 35.38ZM106.26 35.34L106.26 35.34Q102.87 35.34 100.20 33.80Q97.52 32.27 95.98 29.34Q94.43 26.42 94.43 22.29L94.43 22.29Q94.43 18.13 95.98 15.20Q97.54 12.27 100.22 10.73Q102.91 9.19 106.26 9.19L106.26 9.19Q108.43 9.19 110.30 9.80Q112.17 10.41 113.62 11.57Q115.07 12.73 116.00 14.42Q116.92 16.10 117.21 18.23L117.21 18.23L111.93 18.23Q111.76 17.19 111.27 16.38Q110.78 15.57 110.06 15.00Q109.33 14.42 108.39 14.12Q107.45 13.83 106.36 13.83L106.36 13.83Q104.38 13.83 102.87 14.82Q101.37 15.81 100.55 17.70Q99.73 19.58 99.73 22.29L99.73 22.29Q99.73 25.04 100.56 26.92Q101.40 28.80 102.89 29.75Q104.38 30.71 106.34 30.71L106.34 30.71Q107.44 30.71 108.37 30.41Q109.30 30.11 110.04 29.54Q110.78 28.97 111.27 28.15Q111.76 27.33 111.95 26.30L111.95 26.30L117.23 26.30Q117.02 28.06 116.18 29.69Q115.33 31.31 113.93 32.59Q112.53 33.87 110.60 34.61Q108.67 35.34 106.26 35.34ZM123.75 23.94L123.75 23.94L123.75 35L118.63 35L118.63 9.54L123.65 9.54L123.65 20.66L123.24 20.66Q123.99 18.27 125.52 16.96Q127.05 15.65 129.48 15.65L129.48 15.65Q131.46 15.65 132.94 16.52Q134.42 17.38 135.23 19.00Q136.04 20.61 136.04 22.85L136.04 22.85L136.04 35L130.91 35L130.91 23.74Q130.91 21.96 130.00 20.95Q129.09 19.94 127.46 19.94L127.46 19.94Q126.39 19.94 125.54 20.41Q124.69 20.88 124.22 21.77Q123.75 22.66 123.75 23.94ZM143.47 35.38L143.47 35.38Q141.66 35.38 140.22 34.74Q138.77 34.09 137.94 32.82Q137.12 31.55 137.12 29.65L137.12 29.65Q137.12 28.06 137.71 26.98Q138.30 25.91 139.31 25.26Q140.33 24.61 141.62 24.27Q142.91 23.93 144.33 23.79L144.33 23.79Q145.99 23.62 147.00 23.47Q148.02 23.33 148.49 23.01Q148.96 22.70 148.96 22.08L148.96 22.08L148.96 21.99Q148.96 21.17 148.62 20.61Q148.28 20.05 147.61 19.75Q146.94 19.45 145.97 19.45L145.97 19.45Q144.98 19.45 144.24 19.75Q143.51 20.05 143.05 20.54Q142.58 21.04 142.36 21.65L142.36 21.65L137.66 20.87Q138.16 19.21 139.30 18.05Q140.45 16.88 142.15 16.27Q143.85 15.65 145.97 15.65L145.97 15.65Q147.52 15.65 148.98 16.02Q150.43 16.39 151.58 17.16Q152.74 17.93 153.41 19.16Q154.09 20.39 154.09 22.13L154.09 22.13L154.09 35L149.23 35L149.23 32.35L149.06 32.35Q148.60 33.24 147.83 33.91Q147.06 34.59 145.98 34.98Q144.89 35.38 143.47 35.38ZM144.93 31.77L144.93 31.77Q146.14 31.77 147.05 31.29Q147.97 30.81 148.48 29.99Q148.99 29.17 148.99 28.16L148.99 28.16L148.99 26.10Q148.77 26.27 148.31 26.40Q147.85 26.54 147.28 26.64Q146.72 26.75 146.17 26.83Q145.63 26.92 145.20 26.97L145.20 26.97Q144.26 27.10 143.54 27.41Q142.82 27.72 142.43 28.22Q142.04 28.73 142.04 29.51L142.04 29.51Q142.04 30.25 142.41 30.75Q142.79 31.26 143.43 31.51Q144.07 31.77 144.93 31.77ZM154.34 15.89L165.67 15.89L165.67 19.81L154.34 19.81L154.34 15.89ZM156.97 29.86L156.97 11.35L162.10 11.35L162.10 29.41Q162.10 30.32 162.50 30.75Q162.90 31.19 163.84 31.19L163.84 31.19Q164.13 31.19 164.66 31.11Q165.19 31.04 165.47 30.97L165.47 30.97L166.20 34.81Q165.35 35.07 164.50 35.17Q163.65 35.27 162.89 35.27L162.89 35.27Q160.01 35.27 158.49 33.87Q156.97 32.47 156.97 29.86L156.97 29.86Z"/></g>
          
        </svg>
      